<svg viewBox="0 0 841.9 595.3" xmlns="http://www.w3.org/2000/svg" width="120" height="120">
  <g fill="#61DAFB">
    <path d="M666.3 296.5c0 88.6-138.5 160.4-309.3 160.4S47.7 385.1 47.7 296.5 186.2 136.1 357 136.1s309.3 71.8 309.3 160.4z" opacity="0.12"/>
    <circle cx="420.9" cy="296.5" r="45.7"/>
    <g opacity="0.95">
      <path d="M420.9 178.8c-92.8 0-168 99.6-168 117.7s75.2 117.7 168 117.7 168-99.6 168-117.7-75.2-117.7-168-117.7zm0 200.6c-45.6 0-82.6-43.2-82.6-82.9S375.3 213.6 420.9 213.6 503.5 256.8 503.5 295.5s-37 83.9-82.6 83.9z"/>
      <path d="M420.9 60.2c-33.4 0-76.6 10.6-118.6 30.9-68.8 33.9-121 82.9-121 132.5s52.2 98.7 121 132.6c42 20.3 85.2 30.9 118.6 30.9 33.4 0 76.6-10.6 118.6-30.9 68.8-33.9 121-82.9 121-132.6s-52.2-98.7-121-132.5c-42-20.3-85.2-30.9-118.6-30.9z" />
    </g>
  </g>
</svg>